<mxfile host="app.diagrams.net" agent="Mozilla/5.0 (Windows NT 10.0; Win64; x64) AppleWebKit/537.36 (KHTML, like Gecko) Chrome/131.0.0.0 Safari/537.36" version="24.9.1">
  <diagram name="Page-1" id="9zEPuBYHzLMfpYoP8tei">
    <mxGraphModel dx="794" dy="507" grid="1" gridSize="10" guides="1" tooltips="1" connect="1" arrows="1" fold="1" page="1" pageScale="1" pageWidth="850" pageHeight="1100" math="0" shadow="0">
      <root>
        <mxCell id="0" />
        <mxCell id="1" parent="0" />
        <mxCell id="PjGVX1B-gfmGvaNTaWBH-4" style="edgeStyle=orthogonalEdgeStyle;rounded=0;orthogonalLoop=1;jettySize=auto;html=1;entryX=0.5;entryY=1;entryDx=0;entryDy=0;" parent="1" source="8NGVP5KOTLm1defEfAbh-1" target="8NGVP5KOTLm1defEfAbh-2" edge="1">
          <mxGeometry relative="1" as="geometry" />
        </mxCell>
        <mxCell id="PjGVX1B-gfmGvaNTaWBH-5" value="Paddle Positions" style="edgeLabel;html=1;align=center;verticalAlign=middle;resizable=0;points=[];" parent="PjGVX1B-gfmGvaNTaWBH-4" vertex="1" connectable="0">
          <mxGeometry x="-0.1043" y="-1" relative="1" as="geometry">
            <mxPoint x="23" y="1" as="offset" />
          </mxGeometry>
        </mxCell>
        <mxCell id="PjGVX1B-gfmGvaNTaWBH-12" style="edgeStyle=orthogonalEdgeStyle;rounded=0;orthogonalLoop=1;jettySize=auto;html=1;exitX=0;exitY=0.75;exitDx=0;exitDy=0;entryX=0.5;entryY=0;entryDx=0;entryDy=0;" parent="1" source="8NGVP5KOTLm1defEfAbh-1" target="8NGVP5KOTLm1defEfAbh-3" edge="1">
          <mxGeometry relative="1" as="geometry">
            <Array as="points">
              <mxPoint x="340" y="420" />
              <mxPoint x="120" y="420" />
            </Array>
          </mxGeometry>
        </mxCell>
        <mxCell id="PjGVX1B-gfmGvaNTaWBH-13" value="Ball Position, Paddle Position, Ball Direction" style="edgeLabel;html=1;align=center;verticalAlign=middle;resizable=0;points=[];" parent="PjGVX1B-gfmGvaNTaWBH-12" vertex="1" connectable="0">
          <mxGeometry x="0.2485" y="-1" relative="1" as="geometry">
            <mxPoint as="offset" />
          </mxGeometry>
        </mxCell>
        <mxCell id="PjGVX1B-gfmGvaNTaWBH-19" style="edgeStyle=orthogonalEdgeStyle;rounded=0;orthogonalLoop=1;jettySize=auto;html=1;exitX=1;exitY=0.25;exitDx=0;exitDy=0;entryX=0;entryY=0.5;entryDx=0;entryDy=0;" parent="1" source="8NGVP5KOTLm1defEfAbh-1" target="PjGVX1B-gfmGvaNTaWBH-3" edge="1">
          <mxGeometry relative="1" as="geometry" />
        </mxCell>
        <mxCell id="PjGVX1B-gfmGvaNTaWBH-21" style="edgeStyle=orthogonalEdgeStyle;rounded=0;orthogonalLoop=1;jettySize=auto;html=1;exitX=1;exitY=0.75;exitDx=0;exitDy=0;entryX=0;entryY=0.5;entryDx=0;entryDy=0;" parent="1" source="8NGVP5KOTLm1defEfAbh-1" target="8NGVP5KOTLm1defEfAbh-5" edge="1">
          <mxGeometry relative="1" as="geometry" />
        </mxCell>
        <mxCell id="8NGVP5KOTLm1defEfAbh-1" value="Game State&lt;div&gt;-Paddle Positions&lt;/div&gt;&lt;div&gt;-Ball Position&lt;/div&gt;&lt;div&gt;-Ball Direction&lt;/div&gt;&lt;div&gt;-Scores&lt;/div&gt;" style="rounded=0;whiteSpace=wrap;html=1;" parent="1" vertex="1">
          <mxGeometry x="350" y="200" width="120" height="300" as="geometry" />
        </mxCell>
        <mxCell id="8NGVP5KOTLm1defEfAbh-2" value="Paddle Movement" style="rounded=0;whiteSpace=wrap;html=1;" parent="1" vertex="1">
          <mxGeometry x="120" y="200" width="120" height="60" as="geometry" />
        </mxCell>
        <mxCell id="8NGVP5KOTLm1defEfAbh-3" value="Ball Movement" style="whiteSpace=wrap;html=1;" parent="1" vertex="1">
          <mxGeometry x="20" y="440" width="120" height="60" as="geometry" />
        </mxCell>
        <mxCell id="8NGVP5KOTLm1defEfAbh-4" value="VGA Controller" style="whiteSpace=wrap;html=1;" parent="1" vertex="1">
          <mxGeometry x="680" y="200" width="120" height="60" as="geometry" />
        </mxCell>
        <mxCell id="8NGVP5KOTLm1defEfAbh-5" value="Score 7-Segment Decoder" style="whiteSpace=wrap;html=1;" parent="1" vertex="1">
          <mxGeometry x="620" y="440" width="120" height="60" as="geometry" />
        </mxCell>
        <mxCell id="PjGVX1B-gfmGvaNTaWBH-1" value="" style="endArrow=classic;html=1;rounded=0;" parent="1" edge="1">
          <mxGeometry width="50" height="50" relative="1" as="geometry">
            <mxPoint x="70" y="229.5" as="sourcePoint" />
            <mxPoint x="120" y="230" as="targetPoint" />
          </mxGeometry>
        </mxCell>
        <mxCell id="PjGVX1B-gfmGvaNTaWBH-11" value="" style="edgeStyle=orthogonalEdgeStyle;rounded=0;orthogonalLoop=1;jettySize=auto;html=1;" parent="1" source="PjGVX1B-gfmGvaNTaWBH-2" target="8NGVP5KOTLm1defEfAbh-2" edge="1">
          <mxGeometry relative="1" as="geometry">
            <Array as="points">
              <mxPoint x="90" y="230" />
              <mxPoint x="90" y="230" />
            </Array>
          </mxGeometry>
        </mxCell>
        <mxCell id="PjGVX1B-gfmGvaNTaWBH-2" value="Buttons" style="text;html=1;align=center;verticalAlign=middle;resizable=0;points=[];autosize=1;strokeColor=none;fillColor=none;" parent="1" vertex="1">
          <mxGeometry x="10" y="215" width="60" height="30" as="geometry" />
        </mxCell>
        <mxCell id="PjGVX1B-gfmGvaNTaWBH-20" style="edgeStyle=orthogonalEdgeStyle;rounded=0;orthogonalLoop=1;jettySize=auto;html=1;exitX=1;exitY=0.5;exitDx=0;exitDy=0;" parent="1" source="PjGVX1B-gfmGvaNTaWBH-3" target="8NGVP5KOTLm1defEfAbh-4" edge="1">
          <mxGeometry relative="1" as="geometry" />
        </mxCell>
        <mxCell id="PjGVX1B-gfmGvaNTaWBH-3" value="Frame Buffer" style="whiteSpace=wrap;html=1;" parent="1" vertex="1">
          <mxGeometry x="530" y="200" width="120" height="60" as="geometry" />
        </mxCell>
        <mxCell id="PjGVX1B-gfmGvaNTaWBH-8" style="edgeStyle=orthogonalEdgeStyle;rounded=0;orthogonalLoop=1;jettySize=auto;html=1;exitX=1;exitY=0.5;exitDx=0;exitDy=0;entryX=-0.033;entryY=0.1;entryDx=0;entryDy=0;entryPerimeter=0;" parent="1" source="8NGVP5KOTLm1defEfAbh-2" target="8NGVP5KOTLm1defEfAbh-1" edge="1">
          <mxGeometry relative="1" as="geometry" />
        </mxCell>
        <mxCell id="PjGVX1B-gfmGvaNTaWBH-9" value="Paddle Positions" style="edgeLabel;html=1;align=center;verticalAlign=middle;resizable=0;points=[];" parent="PjGVX1B-gfmGvaNTaWBH-8" vertex="1" connectable="0">
          <mxGeometry x="-0.0794" relative="1" as="geometry">
            <mxPoint as="offset" />
          </mxGeometry>
        </mxCell>
        <mxCell id="PjGVX1B-gfmGvaNTaWBH-14" style="edgeStyle=orthogonalEdgeStyle;rounded=0;orthogonalLoop=1;jettySize=auto;html=1;exitX=1;exitY=0.5;exitDx=0;exitDy=0;entryX=0.025;entryY=0.9;entryDx=0;entryDy=0;entryPerimeter=0;" parent="1" source="8NGVP5KOTLm1defEfAbh-3" target="8NGVP5KOTLm1defEfAbh-1" edge="1">
          <mxGeometry relative="1" as="geometry" />
        </mxCell>
        <mxCell id="PjGVX1B-gfmGvaNTaWBH-15" value="Text" style="edgeLabel;html=1;align=center;verticalAlign=middle;resizable=0;points=[];" parent="PjGVX1B-gfmGvaNTaWBH-14" vertex="1" connectable="0">
          <mxGeometry x="0.362" y="4" relative="1" as="geometry">
            <mxPoint x="-31" y="4" as="offset" />
          </mxGeometry>
        </mxCell>
        <mxCell id="PjGVX1B-gfmGvaNTaWBH-17" value="Ball Position&lt;div&gt;Ball Direction&lt;/div&gt;&lt;div&gt;Score&lt;/div&gt;" style="edgeLabel;html=1;align=center;verticalAlign=middle;resizable=0;points=[];" parent="PjGVX1B-gfmGvaNTaWBH-14" vertex="1" connectable="0">
          <mxGeometry x="-0.0061" y="4" relative="1" as="geometry">
            <mxPoint as="offset" />
          </mxGeometry>
        </mxCell>
        <mxCell id="PjGVX1B-gfmGvaNTaWBH-23" style="edgeStyle=orthogonalEdgeStyle;rounded=0;orthogonalLoop=1;jettySize=auto;html=1;entryX=0.5;entryY=0;entryDx=0;entryDy=0;" parent="1" source="PjGVX1B-gfmGvaNTaWBH-22" target="8NGVP5KOTLm1defEfAbh-1" edge="1">
          <mxGeometry relative="1" as="geometry" />
        </mxCell>
        <mxCell id="PjGVX1B-gfmGvaNTaWBH-26" style="edgeStyle=orthogonalEdgeStyle;rounded=0;orthogonalLoop=1;jettySize=auto;html=1;" parent="1" source="PjGVX1B-gfmGvaNTaWBH-22" target="PjGVX1B-gfmGvaNTaWBH-3" edge="1">
          <mxGeometry relative="1" as="geometry" />
        </mxCell>
        <mxCell id="PjGVX1B-gfmGvaNTaWBH-22" value="clk(60Hz)" style="text;html=1;align=center;verticalAlign=middle;resizable=0;points=[];autosize=1;strokeColor=none;fillColor=none;" parent="1" vertex="1">
          <mxGeometry x="30" y="80" width="70" height="30" as="geometry" />
        </mxCell>
        <mxCell id="PjGVX1B-gfmGvaNTaWBH-27" style="edgeStyle=orthogonalEdgeStyle;rounded=0;orthogonalLoop=1;jettySize=auto;html=1;entryX=0.5;entryY=0;entryDx=0;entryDy=0;" parent="1" source="PjGVX1B-gfmGvaNTaWBH-24" target="8NGVP5KOTLm1defEfAbh-4" edge="1">
          <mxGeometry relative="1" as="geometry" />
        </mxCell>
        <mxCell id="PjGVX1B-gfmGvaNTaWBH-24" value="clk (Pixel)" style="text;html=1;align=center;verticalAlign=middle;resizable=0;points=[];autosize=1;strokeColor=none;fillColor=none;" parent="1" vertex="1">
          <mxGeometry x="700" y="80" width="80" height="30" as="geometry" />
        </mxCell>
        <mxCell id="PjGVX1B-gfmGvaNTaWBH-29" style="edgeStyle=orthogonalEdgeStyle;rounded=0;orthogonalLoop=1;jettySize=auto;html=1;entryX=0.5;entryY=1;entryDx=0;entryDy=0;" parent="1" source="PjGVX1B-gfmGvaNTaWBH-28" target="8NGVP5KOTLm1defEfAbh-5" edge="1">
          <mxGeometry relative="1" as="geometry" />
        </mxCell>
        <mxCell id="PjGVX1B-gfmGvaNTaWBH-28" value="clk (Refresh)" style="text;html=1;align=center;verticalAlign=middle;resizable=0;points=[];autosize=1;strokeColor=none;fillColor=none;" parent="1" vertex="1">
          <mxGeometry x="635" y="598" width="90" height="30" as="geometry" />
        </mxCell>
      </root>
    </mxGraphModel>
  </diagram>
</mxfile>
